<?xml version="1.0" standalone="no"?>
<!DOCTYPE svg PUBLIC "-//W3C//DTD SVG 20010904//EN"
 "http://www.w3.org/TR/2001/REC-SVG-20010904/DTD/svg10.dtd">
<svg version="1.0" xmlns="http://www.w3.org/2000/svg"
 width="512.000000pt" height="512.000000pt" viewBox="0 0 512.000000 512.000000"
 preserveAspectRatio="xMidYMid meet">
<metadata>
Created by potrace 1.11, written by Peter Selinger 2001-2013
</metadata>
<g transform="translate(0.000000,512.000000) scale(0.100000,-0.100000)"
fill="#000000" stroke="none">
<path d="M2486 5106 c-37 -14 -57 -30 -151 -121 -23 -22 -126 -121 -229 -220
-104 -99 -210 -200 -235 -225 -135 -130 -415 -397 -476 -455 -112 -107 -458
-440 -590 -566 -66 -64 -143 -138 -171 -165 -571 -543 -598 -571 -613 -626
-29 -103 14 -200 114 -255 23 -13 62 -17 175 -19 80 -1 150 -3 156 -3 7 -1 10
-342 10 -1138 1 -1124 1 -1139 21 -1184 24 -55 54 -85 108 -110 39 -18 111
-19 1955 -19 1844 0 1916 1 1955 19 54 25 84 55 108 110 20 45 21 59 21 1184
0 1023 1 1137 15 1138 9 0 77 2 151 3 145 3 183 13 232 58 57 54 79 138 57
215 -14 50 -44 84 -305 333 -66 63 -212 203 -324 310 -112 107 -217 209 -235
225 -17 17 -123 118 -236 226 -112 108 -227 218 -255 245 -28 27 -141 135
-250 240 -110 105 -222 213 -250 240 -127 121 -423 404 -478 458 -34 32 -77
69 -96 82 -45 30 -131 39 -184 20z m-360 -2490 c84 -22 173 -76 249 -150 78
-77 118 -98 185 -98 63 -1 112 23 167 80 128 133 256 189 409 180 163 -9 283
-116 328 -291 21 -79 18 -270 -4 -356 -50 -197 -167 -341 -416 -515 -112 -77
-286 -176 -390 -221 -83 -35 -89 -36 -128 -24 -62 19 -273 130 -373 194 -299
195 -434 348 -494 560 -14 51 -20 277 -8 345 16 93 80 197 152 247 85 60 211
79 323 49z"/>
</g>
</svg>
